<svg id="visual" viewBox="0 0 900 600" width="900" height="600" xmlns="http://www.w3.org/2000/svg" xmlns:xlink="http://www.w3.org/1999/xlink" version="1.1"><rect x="0" y="0" width="900" height="600" fill="#010d16"></rect><path d="M0 464L21.5 452.5C43 441 86 418 128.8 417.2C171.7 416.3 214.3 437.7 257.2 442.5C300 447.3 343 435.7 385.8 431C428.7 426.3 471.3 428.7 514.2 422.7C557 416.7 600 402.3 642.8 408C685.7 413.7 728.3 439.3 771.2 451.5C814 463.7 857 462.3 878.5 461.7L900 461L900 601L878.5 601C857 601 814 601 771.2 601C728.3 601 685.7 601 642.8 601C600 601 557 601 514.2 601C471.3 601 428.7 601 385.8 601C343 601 300 601 257.2 601C214.3 601 171.7 601 128.8 601C86 601 43 601 21.5 601L0 601Z" fill="#fa7268"></path><path d="M0 425L21.5 434C43 443 86 461 128.8 466C171.7 471 214.3 463 257.2 453.8C300 444.7 343 434.3 385.8 438C428.7 441.7 471.3 459.3 514.2 459.2C557 459 600 441 642.8 443.2C685.7 445.3 728.3 467.7 771.2 476.8C814 486 857 482 878.5 480L900 478L900 601L878.5 601C857 601 814 601 771.2 601C728.3 601 685.7 601 642.8 601C600 601 557 601 514.2 601C471.3 601 428.7 601 385.8 601C343 601 300 601 257.2 601C214.3 601 171.7 601 128.8 601C86 601 43 601 21.5 601L0 601Z" fill="#ef5f67"></path><path d="M0 478L21.5 474.8C43 471.7 86 465.3 128.8 471C171.7 476.7 214.3 494.3 257.2 499C300 503.7 343 495.3 385.8 493.7C428.7 492 471.3 497 514.2 494.8C557 492.7 600 483.3 642.8 478.8C685.7 474.3 728.3 474.7 771.2 480.2C814 485.7 857 496.3 878.5 501.7L900 507L900 601L878.5 601C857 601 814 601 771.2 601C728.3 601 685.7 601 642.8 601C600 601 557 601 514.2 601C471.3 601 428.7 601 385.8 601C343 601 300 601 257.2 601C214.3 601 171.7 601 128.8 601C86 601 43 601 21.5 601L0 601Z" fill="#e34c67"></path><path d="M0 496L21.5 497.8C43 499.7 86 503.3 128.8 507.5C171.7 511.7 214.3 516.3 257.2 521.5C300 526.7 343 532.3 385.8 529.7C428.7 527 471.3 516 514.2 515.3C557 514.7 600 524.3 642.8 525.5C685.7 526.7 728.3 519.3 771.2 522C814 524.7 857 537.3 878.5 543.7L900 550L900 601L878.5 601C857 601 814 601 771.2 601C728.3 601 685.7 601 642.8 601C600 601 557 601 514.2 601C471.3 601 428.7 601 385.8 601C343 601 300 601 257.2 601C214.3 601 171.7 601 128.8 601C86 601 43 601 21.5 601L0 601Z" fill="#d53867"></path><path d="M0 569L21.5 564.5C43 560 86 551 128.8 545.8C171.7 540.7 214.3 539.3 257.2 541.8C300 544.3 343 550.7 385.8 550.3C428.7 550 471.3 543 514.2 545.3C557 547.7 600 559.3 642.8 565.7C685.7 572 728.3 573 771.2 572.5C814 572 857 570 878.5 569L900 568L900 601L878.5 601C857 601 814 601 771.2 601C728.3 601 685.7 601 642.8 601C600 601 557 601 514.2 601C471.3 601 428.7 601 385.8 601C343 601 300 601 257.2 601C214.3 601 171.7 601 128.8 601C86 601 43 601 21.5 601L0 601Z" fill="#c62368"></path></svg>