<?xml version="1.0" standalone="no"?>
<!DOCTYPE svg PUBLIC "-//W3C//DTD SVG 20010904//EN"
 "http://www.w3.org/TR/2001/REC-SVG-20010904/DTD/svg10.dtd">
<svg version="1.0" xmlns="http://www.w3.org/2000/svg"
 width="1366.000000pt" height="661.000000pt" viewBox="0 0 1366.000000 661.000000"
 preserveAspectRatio="xMidYMid meet">
<metadata>
Created by potrace 1.16, written by Peter Selinger 2001-2019
</metadata>
<g transform="translate(0.000000,661.000000) scale(0.100000,-0.100000)"
fill="#000000" stroke="none">
<path d="M5245 5711 c-186 -31 -303 -108 -363 -239 -34 -75 -43 -240 -18 -346
10 -43 13 -72 7 -75 -5 -4 -19 -53 -31 -110 -70 -346 -304 -863 -578 -1281
-301 -457 -684 -863 -1132 -1199 -255 -191 -477 -326 -810 -493 -136 -68 -167
-88 -174 -110 -12 -34 14 -68 52 -68 13 0 102 37 196 83 1148 557 2042 1545
2471 2732 17 50 43 130 55 178 l24 89 19 -38 c59 -115 158 -203 260 -230 238
-63 543 78 902 416 50 47 171 155 268 240 97 85 177 157 177 161 0 14 -228
102 -403 155 -158 48 -351 95 -471 115 -134 22 -373 33 -451 20z"/>
</g>
</svg>
