<?xml version="1.0" standalone="no"?>
<!DOCTYPE svg PUBLIC "-//W3C//DTD SVG 20010904//EN"
 "http://www.w3.org/TR/2001/REC-SVG-20010904/DTD/svg10.dtd">
<svg version="1.0" xmlns="http://www.w3.org/2000/svg"
 width="1366.000000pt" height="661.000000pt" viewBox="0 0 1366.000000 661.000000"
 preserveAspectRatio="xMidYMid meet">
<metadata>
Created by potrace 1.16, written by Peter Selinger 2001-2019
</metadata>
<g transform="translate(0.000000,661.000000) scale(0.100000,-0.100000)"
fill="#000000" stroke="none">
<path d="M5149 5435 c-265 -53 -401 -244 -370 -519 11 -90 32 -188 55 -253 14
-40 13 -48 -14 -155 -125 -493 -429 -1096 -807 -1604 -264 -354 -601 -702
-950 -981 -306 -244 -644 -457 -1008 -634 -105 -51 -198 -99 -207 -107 -43
-36 -3 -120 51 -109 54 11 447 210 619 314 720 433 1305 989 1762 1673 253
377 474 824 609 1227 23 68 41 130 41 139 0 10 22 -6 58 -43 37 -39 81 -71
127 -94 67 -33 73 -34 185 -34 100 1 126 5 195 29 209 74 399 201 640 428 83
77 318 287 449 400 17 14 29 28 26 31 -11 10 -212 87 -315 122 -258 85 -502
145 -693 170 -136 18 -362 18 -453 0z"/>
<path d="M6970 4866 c0 -8 -10 -16 -22 -18 -13 -2 -22 -9 -21 -15 2 -7 -6 -15
-17 -18 -11 -4 -20 -13 -20 -21 0 -8 -13 -20 -30 -25 -16 -6 -30 -17 -30 -25
0 -8 -7 -14 -15 -14 -8 0 -15 -7 -15 -15 0 -9 -12 -21 -27 -28 -30 -13 -52
-33 -69 -63 -6 -10 -19 -21 -28 -22 -19 -4 -56 -37 -56 -50 0 -4 -13 -13 -29
-20 -17 -7 -32 -23 -35 -37 -5 -18 -13 -25 -31 -25 -16 0 -25 -6 -25 -15 0 -8
-6 -15 -14 -15 -8 0 -17 -11 -20 -25 -5 -18 -13 -25 -31 -25 -16 0 -25 -6 -25
-15 0 -8 -5 -15 -10 -15 -6 0 -16 -11 -22 -25 -6 -14 -18 -25 -26 -25 -16 0
-62 -45 -62 -61 0 -5 -7 -9 -16 -9 -18 0 -44 -23 -44 -40 0 -6 -13 -16 -30
-21 -16 -6 -30 -17 -30 -25 0 -8 -7 -14 -15 -14 -8 0 -15 -7 -15 -15 0 -9 -12
-21 -27 -28 -30 -13 -52 -33 -69 -63 -6 -10 -19 -21 -28 -22 -23 -5 -52 -34
-61 -61 -3 -12 -15 -21 -26 -21 -19 0 -59 -33 -59 -49 0 -5 -13 -14 -29 -21
-17 -7 -32 -22 -35 -36 -5 -17 -13 -24 -31 -24 -16 0 -25 -6 -25 -15 0 -8 -5
-15 -10 -15 -6 0 -16 -11 -22 -25 -6 -14 -19 -25 -28 -25 -17 0 -60 -43 -60
-60 0 -5 -16 -16 -35 -24 -19 -8 -35 -20 -35 -25 0 -6 -7 -11 -15 -11 -9 0
-12 -6 -9 -15 4 -11 -5 -20 -30 -30 -20 -8 -36 -20 -36 -25 0 -6 -7 -10 -16
-10 -10 0 -14 -6 -10 -15 3 -9 0 -15 -10 -15 -17 0 -33 -14 -50 -45 -6 -11
-19 -22 -28 -23 -23 -5 -52 -34 -61 -61 -4 -14 -15 -21 -31 -21 -14 0 -24 -6
-24 -14 0 -7 -9 -16 -20 -19 -11 -3 -20 -9 -19 -14 4 -23 -3 -33 -22 -33 -21
0 -69 -42 -69 -61 0 -5 -7 -9 -15 -9 -9 0 -24 -13 -33 -30 -9 -16 -25 -30 -34
-30 -10 0 -22 -9 -28 -20 -6 -11 -17 -20 -25 -20 -8 0 -12 -6 -9 -14 4 -10 -6
-20 -30 -30 -20 -8 -36 -20 -36 -25 0 -6 -7 -11 -16 -11 -10 0 -14 -5 -10 -16
4 -11 -4 -19 -29 -30 -19 -8 -35 -19 -35 -24 0 -6 -7 -10 -16 -10 -9 0 -14 -6
-12 -12 6 -18 -16 -38 -41 -38 -12 0 -21 -6 -21 -15 0 -8 -6 -15 -14 -15 -8 0
-17 -11 -20 -25 -5 -18 -13 -25 -32 -25 -14 0 -24 -5 -23 -12 4 -29 -2 -38
-26 -38 -15 0 -25 -6 -25 -14 0 -7 -9 -16 -20 -19 -11 -3 -20 -9 -19 -14 4
-23 -3 -33 -22 -33 -22 0 -69 -42 -69 -61 0 -6 -13 -15 -30 -20 -16 -6 -30
-17 -30 -25 0 -8 -7 -14 -15 -14 -8 0 -15 -7 -15 -15 0 -9 -12 -21 -27 -28
-16 -7 -28 -19 -28 -27 0 -8 -15 -18 -32 -24 -18 -5 -33 -15 -33 -22 0 -8 -7
-14 -16 -14 -10 0 -14 -6 -11 -14 4 -10 -5 -19 -24 -28 -16 -7 -29 -16 -29
-20 0 -11 3 -10 92 7 43 8 84 12 91 9 7 -2 67 5 133 17 65 11 135 21 154 20
47 0 493 78 500 88 3 5 56 16 118 27 61 10 112 21 112 25 0 4 33 13 73 20 40
7 79 20 87 29 9 10 47 22 93 29 43 7 90 19 105 27 15 8 35 14 45 14 9 0 17 4
17 9 0 4 19 11 42 14 23 3 45 12 50 21 5 8 29 18 55 22 25 4 54 15 63 24 10
10 36 21 59 25 23 4 41 11 41 16 0 5 9 9 20 9 11 0 20 6 20 14 0 10 16 17 45
22 25 3 45 10 45 15 0 5 7 9 15 9 8 0 24 9 35 20 11 11 29 20 40 20 11 0 20 5
20 10 0 6 7 10 15 10 8 0 15 6 15 14 0 8 15 17 34 20 19 4 39 13 46 21 7 8 18
15 24 15 6 0 24 12 41 26 16 14 44 34 62 45 18 11 33 27 33 35 0 8 9 14 20 14
12 0 25 10 32 25 6 14 18 25 26 25 16 0 62 45 62 61 0 5 9 9 20 9 18 0 25 10
21 33 0 4 3 7 7 7 16 0 52 37 52 54 0 9 8 16 18 16 16 0 122 147 122 170 0 5
5 10 10 10 6 0 10 9 10 19 0 11 7 26 15 35 8 8 15 23 15 34 0 11 7 23 16 26
11 4 15 14 12 31 -3 16 -1 25 7 25 16 0 26 25 19 45 -4 10 0 15 11 15 11 0 15
5 11 15 -3 8 -2 15 2 15 4 0 9 14 10 31 1 17 7 40 13 51 6 11 12 34 14 52 2
17 7 56 10 86 16 133 12 235 -17 410 -16 96 -36 189 -44 207 -8 17 -14 38 -14
46 0 8 -7 28 -15 43 -8 16 -15 37 -15 47 0 9 -4 17 -10 17 -5 0 -10 11 -10 25
0 14 -4 25 -10 25 -5 0 -10 11 -10 25 0 18 -5 25 -20 25 -11 0 -20 -6 -20 -14z"/>
<path d="M6954 2966 c-17 -18 -39 -36 -48 -39 -9 -4 -16 -11 -16 -17 0 -5 -7
-10 -15 -10 -9 0 -18 -7 -21 -15 -4 -8 -12 -15 -20 -15 -8 0 -14 -6 -14 -13 0
-7 -16 -20 -36 -27 -20 -8 -41 -22 -48 -31 -6 -9 -21 -19 -33 -23 -13 -4 -23
-12 -23 -17 0 -5 -6 -9 -13 -9 -8 0 -24 -9 -37 -20 -13 -11 -29 -20 -37 -20
-7 0 -13 -4 -13 -10 0 -5 -9 -10 -19 -10 -11 0 -26 -7 -35 -15 -8 -8 -21 -15
-28 -15 -7 0 -38 -13 -68 -30 -30 -16 -63 -29 -72 -30 -10 0 -18 -3 -18 -7 0
-5 -27 -16 -60 -27 -33 -10 -60 -21 -60 -25 0 -6 -75 -28 -132 -38 -16 -3 -28
-9 -28 -14 0 -5 -13 -9 -30 -9 -16 0 -30 -4 -30 -9 0 -5 -12 -11 -27 -14 -16
-3 -84 -20 -153 -37 -171 -42 -216 -51 -282 -57 -32 -3 -58 -8 -58 -13 0 -4
-37 -11 -82 -15 -46 -4 -85 -10 -88 -14 -7 -10 -849 -79 -852 -70 -2 4 -41 3
-86 -1 -46 -4 -114 -5 -152 -2 -41 3 -70 0 -74 -6 -6 -10 107 -129 184 -192
23 -19 55 -46 70 -60 16 -14 47 -41 70 -60 24 -19 48 -41 56 -47 7 -7 19 -13
28 -13 8 0 19 -6 23 -14 8 -15 66 -52 96 -62 9 -4 17 -10 17 -14 0 -4 25 -20
55 -35 30 -14 55 -31 55 -36 0 -5 10 -9 22 -9 12 0 29 -6 37 -14 33 -28 278
-108 389 -126 90 -15 281 -15 342 -1 25 5 64 10 88 11 23 0 42 5 42 10 0 6 11
10 24 10 13 0 37 7 52 15 16 8 37 15 47 15 9 0 17 3 17 8 0 8 43 28 83 38 15
3 27 10 27 15 0 5 6 9 13 9 8 0 24 9 37 20 13 11 29 20 37 20 7 0 13 5 13 10
0 6 6 10 14 10 7 0 25 11 40 25 15 14 31 25 37 25 5 0 28 18 50 40 22 22 43
40 46 40 3 0 29 25 58 55 30 30 58 55 64 55 6 0 11 3 11 8 0 4 13 22 30 40 16
18 42 49 57 69 16 20 37 47 48 59 42 46 61 70 74 97 8 15 18 27 23 27 4 0 8 9
8 19 0 10 6 21 13 24 7 2 23 25 36 51 13 25 28 46 32 46 5 0 18 19 29 43 39
77 51 97 61 97 5 0 9 9 9 20 0 11 5 20 10 20 6 0 10 9 10 20 0 11 5 20 10 20
6 0 10 9 10 20 0 11 5 20 10 20 6 0 10 9 10 19 0 10 6 21 14 24 8 3 17 19 21
36 4 17 11 31 16 31 5 0 9 4 9 10 0 17 34 90 42 90 5 0 8 13 8 29 0 16 6 31
15 35 18 7 20 36 3 35 -7 0 -27 -15 -44 -33z"/>
<path d="M3974 1888 c9 -49 40 -134 58 -157 10 -13 18 -32 18 -42 0 -11 4 -19
10 -19 5 0 13 -12 16 -27 4 -15 13 -34 21 -41 7 -7 13 -22 13 -33 0 -10 3 -19
8 -19 4 0 15 -18 25 -40 9 -22 21 -40 27 -40 5 0 10 -9 10 -20 0 -11 5 -20 10
-20 6 0 10 -9 10 -20 0 -11 5 -20 10 -20 6 0 10 -6 10 -13 0 -7 9 -23 20 -35
11 -12 20 -25 20 -29 0 -5 9 -14 20 -21 11 -7 20 -19 20 -27 0 -15 13 -34 60
-86 14 -16 41 -47 60 -70 53 -65 151 -158 172 -165 10 -3 16 -9 13 -14 -3 -5
3 -11 14 -15 17 -5 41 -23 91 -69 23 -20 240 -128 280 -138 19 -5 49 -11 67
-13 18 -2 37 -7 44 -10 24 -15 297 -26 306 -12 2 4 8 5 13 2 4 -3 30 0 56 6
27 6 60 12 74 14 14 2 66 17 115 34 50 18 98 34 108 36 26 6 131 59 135 68 2
4 8 5 13 1 5 -3 9 0 9 5 0 6 9 11 20 11 11 0 20 5 20 10 0 6 9 10 20 10 11 0
20 5 20 10 0 6 9 10 19 10 10 0 21 7 25 15 3 8 12 15 19 15 8 0 20 7 27 15 7
8 33 25 58 37 25 13 50 31 56 41 6 9 18 17 26 17 8 0 36 20 63 44 26 25 47 42
47 40 0 -3 6 1 13 8 8 7 26 22 42 33 15 11 50 40 76 65 97 91 119 110 119 105
0 -8 81 77 98 103 8 12 13 25 10 27 -3 3 -31 -6 -62 -21 -31 -14 -62 -27 -69
-28 -7 -1 -37 -10 -67 -21 -30 -10 -55 -16 -56 -14 0 2 -8 -2 -17 -9 -9 -8
-20 -11 -26 -8 -5 3 -20 2 -34 -3 -13 -5 -45 -12 -70 -15 -26 -3 -68 -9 -94
-13 -121 -18 -494 -5 -633 23 -19 3 -44 8 -55 10 -99 18 -100 19 -185 39 -36
9 -75 18 -87 20 -12 2 -27 6 -33 10 -6 4 -21 8 -33 10 -12 2 -40 9 -62 15 -22
6 -49 13 -61 15 -12 1 -36 10 -53 20 -18 9 -35 14 -38 11 -3 -3 -23 4 -45 15
-22 11 -42 18 -45 15 -3 -3 -23 4 -44 14 -21 11 -45 20 -54 20 -9 0 -38 12
-66 26 -28 14 -53 23 -56 20 -3 -3 -32 9 -65 25 -33 17 -62 28 -65 25 -3 -3
-50 17 -104 44 -54 28 -106 50 -114 50 -8 0 -87 36 -175 80 -88 44 -162 80
-165 80 -3 0 -4 -10 -1 -22z"/>
</g>
</svg>
