<?xml version="1.0" standalone="no"?>
<!DOCTYPE svg PUBLIC "-//W3C//DTD SVG 20010904//EN"
 "http://www.w3.org/TR/2001/REC-SVG-20010904/DTD/svg10.dtd">
<svg version="1.0" xmlns="http://www.w3.org/2000/svg"
 width="100px" height="100px" viewBox="0 0 3464.000000 1120.000000"
 preserveAspectRatio="xMidYMid meet">
<metadata>
Created by potrace 1.16, written by Peter Selinger 2001-2019
</metadata>
<g transform="translate(0.000000,1120.000000) scale(0.100000,-0.100000)"
fill="#000000" stroke="none">
<path d="M8110 8801 c0 -4 -35 -11 -77 -15 -42 -3 -82 -11 -87 -16 -6 -6 -23
-10 -38 -10 -15 0 -28 -4 -28 -10 0 -5 -8 -10 -17 -10 -10 0 -31 -7 -47 -15
-15 -8 -35 -15 -42 -15 -8 0 -14 -4 -14 -9 0 -5 -10 -11 -23 -15 -12 -3 -32
-14 -44 -26 -12 -11 -27 -20 -33 -20 -13 0 -140 -128 -140 -141 0 -5 -9 -20
-20 -32 -12 -12 -23 -32 -26 -44 -4 -13 -10 -23 -15 -23 -5 0 -9 -6 -9 -14 0
-7 -7 -27 -15 -42 -8 -16 -15 -45 -15 -64 0 -20 -5 -41 -12 -48 -15 -15 -15
-364 0 -395 6 -12 14 -52 17 -89 4 -37 11 -70 16 -73 5 -4 9 -19 9 -35 0 -16
4 -31 9 -34 4 -3 11 -26 14 -51 4 -24 11 -54 17 -65 5 -11 15 -29 20 -40 6
-11 6 -20 1 -20 -5 0 -11 -15 -14 -32 -4 -18 -11 -64 -18 -103 -6 -38 -15 -72
-19 -75 -4 -3 -10 -18 -13 -35 -9 -49 -28 -119 -37 -136 -5 -9 -11 -37 -15
-63 -4 -25 -11 -46 -16 -46 -5 0 -9 -11 -9 -25 0 -14 -4 -25 -10 -25 -5 0 -10
-9 -10 -21 0 -19 -18 -68 -41 -111 -5 -10 -9 -23 -9 -29 0 -6 -7 -26 -15 -45
-8 -19 -22 -49 -30 -68 -8 -19 -15 -41 -15 -50 0 -9 -4 -16 -9 -16 -5 0 -12
-18 -16 -40 -4 -22 -11 -40 -16 -40 -5 0 -9 -9 -9 -19 0 -11 -4 -22 -9 -25 -5
-3 -12 -22 -15 -41 -4 -19 -10 -35 -14 -35 -9 0 -42 -75 -42 -95 0 -8 -3 -15
-8 -15 -4 0 -13 -15 -21 -32 -35 -83 -46 -109 -84 -188 -22 -47 -43 -87 -46
-90 -3 -3 -33 -59 -66 -125 -33 -66 -62 -122 -65 -125 -3 -3 -11 -16 -18 -30
-7 -14 -26 -47 -42 -75 -16 -27 -38 -66 -47 -85 -10 -19 -26 -44 -36 -55 -10
-11 -20 -30 -23 -42 -4 -13 -10 -23 -15 -23 -5 0 -9 -6 -9 -14 0 -8 -6 -21
-13 -28 -6 -7 -21 -30 -32 -50 -11 -21 -22 -38 -26 -38 -4 0 -9 -8 -13 -17 -5
-18 -26 -54 -36 -63 -10 -10 -70 -107 -70 -114 0 -4 -11 -18 -25 -32 -14 -14
-25 -31 -25 -39 0 -8 -4 -15 -8 -15 -5 0 -17 -16 -28 -35 -10 -19 -22 -35 -26
-35 -5 0 -8 -7 -8 -15 0 -8 -4 -15 -9 -15 -5 0 -13 -9 -16 -21 -4 -12 -14 -29
-23 -38 -28 -30 -48 -56 -68 -89 -10 -18 -22 -32 -25 -32 -4 0 -11 -10 -15
-22 -4 -12 -17 -31 -30 -41 -13 -10 -24 -23 -24 -28 0 -6 -6 -16 -12 -24 -7
-7 -24 -28 -38 -46 -14 -18 -29 -37 -35 -44 -5 -6 -26 -31 -45 -55 -19 -25
-38 -46 -42 -48 -4 -2 -8 -10 -8 -17 0 -7 -3 -15 -7 -17 -5 -1 -24 -21 -43
-44 -19 -22 -54 -63 -77 -90 -23 -27 -51 -60 -63 -74 -49 -59 -120 -137 -195
-214 -44 -46 -120 -126 -170 -177 -128 -133 -354 -347 -514 -486 -25 -21 -58
-50 -73 -65 -16 -16 -31 -28 -34 -28 -3 0 -11 -6 -19 -12 -7 -7 -28 -24 -46
-38 -19 -14 -51 -42 -72 -63 -22 -20 -43 -37 -48 -37 -4 0 -19 -10 -31 -23
-13 -12 -46 -38 -73 -57 -28 -19 -55 -39 -62 -45 -35 -29 -43 -35 -48 -35 -4
0 -37 -26 -69 -55 -6 -6 -36 -26 -66 -45 -59 -37 -59 -37 -105 -73 -16 -13
-38 -26 -47 -30 -10 -3 -18 -11 -18 -17 0 -5 -4 -10 -9 -10 -9 0 -132 -79
-141 -91 -3 -3 -15 -9 -27 -13 -13 -4 -23 -12 -23 -17 0 -5 -7 -9 -15 -9 -8 0
-15 -4 -15 -9 0 -5 -11 -12 -25 -15 -14 -4 -25 -11 -25 -16 0 -6 -7 -10 -15
-10 -8 0 -15 -4 -15 -9 0 -5 -10 -13 -22 -17 -13 -4 -25 -10 -28 -14 -4 -6
-43 -28 -145 -84 -11 -6 -22 -13 -25 -16 -3 -3 -22 -14 -42 -24 -21 -11 -38
-23 -38 -27 0 -4 -14 -10 -30 -14 -17 -4 -30 -10 -30 -15 0 -4 -11 -11 -25
-14 -14 -4 -25 -11 -25 -16 0 -6 -9 -10 -20 -10 -11 0 -20 -4 -20 -9 0 -5 -13
-12 -30 -16 -16 -4 -30 -11 -30 -16 0 -5 -7 -9 -15 -9 -8 0 -15 -4 -15 -10 0
-5 -7 -10 -16 -10 -14 0 -71 -27 -84 -40 -14 -14 -303 -150 -319 -150 -6 0
-11 -4 -11 -10 0 -5 -7 -10 -15 -10 -8 0 -15 -4 -15 -10 0 -5 -7 -10 -16 -10
-8 0 -39 -11 -69 -24 -37 -17 -58 -34 -69 -57 -18 -35 -22 -119 -6 -119 6 0
10 -5 10 -11 0 -23 57 -59 94 -59 13 0 41 9 63 19 21 11 52 26 68 33 17 8 39
19 50 25 43 25 152 73 163 73 7 0 12 4 12 9 0 5 12 12 27 16 15 3 38 14 52 24
14 9 45 26 68 36 24 11 43 23 43 28 0 4 7 7 15 7 15 0 219 104 235 120 3 3 21
14 40 24 19 11 62 34 95 53 33 19 68 36 78 40 9 3 17 9 17 13 0 4 10 10 23 14
12 3 32 13 43 23 27 24 55 42 77 49 9 4 17 10 17 15 0 5 6 9 14 9 8 0 21 6 28
13 8 6 23 17 33 24 88 54 201 127 205 132 3 3 39 28 80 56 41 27 77 52 80 56
3 3 25 19 50 34 24 16 50 33 57 39 22 20 37 31 98 76 33 24 62 47 63 52 2 4 8
8 14 8 6 0 27 14 47 30 20 17 41 34 46 38 12 8 88 70 125 101 23 19 39 32 96
79 58 46 132 110 156 133 15 14 57 53 95 85 37 32 102 93 144 134 43 41 106
103 141 136 180 175 421 435 568 614 25 30 52 62 60 71 16 17 27 30 80 99 19
25 37 47 40 50 3 3 25 32 50 65 25 33 48 62 51 65 4 3 50 66 103 140 53 74
100 140 104 145 5 6 17 24 28 40 10 17 21 32 24 35 3 3 21 30 40 60 19 30 38
57 42 58 5 2 8 10 8 18 0 8 4 14 10 14 5 0 12 11 16 25 3 14 9 25 14 25 4 0
15 17 26 38 10 20 21 39 24 42 10 9 70 107 70 114 0 4 9 17 20 29 12 12 23 32
26 44 4 13 10 23 15 23 5 0 9 4 9 10 0 5 21 44 46 86 59 97 84 141 131 234 21
41 40 77 43 80 3 3 23 41 46 85 22 44 46 89 52 100 10 18 33 70 87 190 9 22
32 72 50 110 53 114 65 142 65 159 0 9 5 16 10 16 6 0 10 6 10 14 0 7 7 27 15
42 8 16 15 36 15 45 0 8 4 19 8 25 5 5 15 25 22 44 16 44 33 85 54 132 9 20
16 43 16 51 0 9 4 18 9 22 6 3 13 26 17 50 3 25 10 45 15 45 5 0 9 11 9 24 0
14 4 27 9 31 6 3 13 26 17 50 3 25 10 45 14 45 4 0 10 12 13 28 11 53 35 137
36 123 1 -20 174 -188 203 -196 13 -4 25 -10 28 -14 10 -12 68 -41 83 -41 9 0
17 -5 19 -11 2 -6 32 -13 66 -16 34 -3 62 -10 62 -14 0 -12 257 -12 264 0 3 4
30 11 61 15 31 3 63 10 73 15 9 5 44 17 77 27 33 10 67 21 75 25 52 23 256
125 260 129 3 3 22 14 43 25 20 11 37 23 37 26 0 4 10 9 23 13 12 3 35 17 51
31 16 14 32 25 36 25 3 0 15 8 26 18 11 9 42 33 69 51 28 19 52 37 55 40 3 4
30 26 60 51 89 73 100 82 164 140 73 66 219 203 261 246 17 17 37 35 46 40 9
5 41 32 71 59 65 59 100 90 193 170 38 33 86 74 105 92 61 56 164 147 198 175
38 31 41 70 7 76 -11 2 -48 17 -81 33 -34 16 -69 29 -78 29 -9 0 -16 3 -16 8
0 4 -28 16 -62 26 -35 11 -67 23 -73 27 -5 4 -26 10 -45 14 -19 4 -42 11 -52
16 -10 5 -27 13 -38 19 -10 5 -37 13 -60 16 -22 4 -40 10 -40 15 0 5 -11 9
-24 9 -14 0 -28 4 -31 10 -3 5 -28 12 -55 16 -28 4 -50 10 -50 14 0 4 -12 10
-27 13 -82 17 -133 32 -133 38 0 4 -27 10 -60 14 -33 4 -63 11 -66 16 -3 5
-15 9 -28 9 -12 0 -26 4 -32 10 -5 5 -38 13 -72 16 -34 4 -62 11 -62 15 0 5
-15 9 -34 9 -19 0 -37 4 -40 9 -4 5 -40 12 -81 16 -41 4 -75 11 -75 16 0 5
-21 9 -46 9 -25 0 -54 5 -64 10 -11 6 -69 13 -130 17 -60 3 -110 10 -110 15 0
4 -117 8 -260 8 -143 0 -260 -4 -260 -9z"/>
<path d="M10997 7873 c-4 -3 -7 -14 -7 -24 0 -13 -9 -19 -32 -21 -25 -2 -36
-10 -47 -32 -7 -16 -22 -31 -32 -33 -12 -3 -19 -14 -19 -28 0 -18 -10 -27 -50
-41 -40 -14 -50 -22 -50 -41 0 -18 -6 -23 -25 -23 -19 0 -25 -5 -25 -21 0 -29
-24 -49 -64 -56 -26 -4 -36 -11 -38 -27 -2 -13 -11 -22 -25 -24 -16 -2 -23
-10 -23 -26 0 -30 -30 -56 -64 -56 -19 0 -29 -7 -35 -24 -5 -13 -19 -26 -30
-29 -13 -3 -21 -13 -21 -26 0 -14 -6 -21 -20 -21 -11 0 -20 -4 -20 -8 0 -5
-11 -14 -25 -20 -15 -7 -25 -20 -25 -32 0 -11 -4 -20 -10 -20 -5 0 -10 -9 -10
-20 0 -17 -7 -20 -40 -20 -33 0 -40 -4 -40 -19 0 -12 -9 -21 -25 -25 -18 -5
-25 -13 -25 -31 0 -14 -4 -25 -10 -25 -5 0 -10 -7 -10 -15 0 -11 -11 -15 -40
-15 -36 0 -40 -3 -40 -24 0 -17 -7 -26 -25 -30 -14 -4 -25 -14 -25 -24 -1 -28
-24 -50 -55 -54 -19 -2 -34 -12 -42 -28 -6 -13 -21 -28 -32 -32 -12 -4 -21
-16 -21 -28 0 -15 -7 -20 -26 -20 -17 0 -28 -6 -31 -20 -3 -11 -12 -20 -19
-20 -8 0 -14 -8 -14 -18 0 -25 -19 -42 -47 -42 -13 0 -23 -4 -23 -10 0 -5 -7
-10 -15 -10 -9 0 -15 -9 -15 -25 0 -20 -5 -25 -25 -25 -20 0 -25 -5 -25 -25 0
-18 -7 -26 -25 -31 -14 -3 -25 -10 -25 -15 0 -5 -11 -9 -24 -9 -16 0 -26 -7
-29 -21 -3 -11 -15 -23 -26 -26 -12 -3 -21 -14 -21 -24 0 -28 -36 -59 -69 -59
-22 0 -30 -6 -35 -25 -4 -15 -13 -25 -25 -25 -14 0 -20 -10 -25 -40 -6 -39 -7
-40 -46 -40 -22 0 -40 -5 -40 -11 0 -14 -25 -39 -39 -39 -6 0 -11 -11 -11 -25
0 -14 -4 -25 -10 -25 -5 0 -28 -8 -50 -17 -30 -13 -40 -23 -40 -40 0 -13 -4
-23 -10 -23 -5 0 -10 -6 -10 -14 0 -10 -13 -16 -37 -18 -31 -2 -39 -7 -41 -25
-2 -13 -8 -23 -13 -23 -14 0 -32 -20 -46 -52 -9 -19 -20 -28 -36 -28 -26 0
-67 -33 -67 -55 0 -8 -9 -15 -20 -15 -15 0 -20 -7 -20 -25 0 -16 -7 -28 -17
-31 -10 -3 -26 -10 -35 -15 -10 -5 -24 -9 -33 -9 -8 0 -17 -11 -21 -25 -4 -15
-13 -25 -24 -25 -24 0 -36 -18 -22 -32 15 -15 -9 -37 -50 -45 -34 -7 -58 -24
-58 -42 0 -5 -10 -11 -22 -13 -15 -2 -24 -11 -26 -25 -2 -15 -10 -23 -23 -23
-11 0 -22 -7 -25 -15 -4 -8 -12 -15 -20 -15 -8 0 -14 -9 -14 -20 0 -30 -31
-60 -62 -60 -21 0 -31 -7 -37 -24 -5 -13 -18 -26 -29 -28 -14 -4 -22 -18 -27
-47 -7 -40 -8 -41 -47 -41 -30 0 -41 -4 -45 -18 -2 -10 -17 -24 -34 -31 -24
-10 -29 -19 -29 -46 0 -33 -2 -34 -42 -37 -35 -2 -45 -8 -56 -30 -8 -17 -21
-28 -33 -28 -14 0 -19 -7 -19 -25 0 -18 -5 -25 -20 -25 -23 0 -60 -33 -60 -55
0 -8 -4 -15 -10 -15 -5 0 -10 -7 -10 -15 0 -9 -10 -15 -26 -15 -27 0 -46 -14
-56 -42 -4 -9 -17 -18 -30 -20 -15 -2 -24 -10 -24 -23 -1 -11 -2 -26 -3 -32
-1 -7 -12 -13 -26 -13 -14 0 -25 -4 -25 -9 0 -5 -10 -11 -22 -13 -15 -2 -24
-11 -26 -25 -3 -17 -10 -23 -28 -23 -20 0 -24 -5 -24 -30 0 -20 -5 -30 -15
-30 -8 0 -15 -4 -15 -10 0 -5 -9 -10 -19 -10 -33 0 -51 -11 -51 -31 0 -13 -7
-19 -24 -19 -20 0 -24 -6 -30 -40 -6 -39 -7 -40 -46 -40 -34 0 -41 -4 -46 -24
-3 -15 -14 -26 -27 -28 -15 -2 -24 -13 -30 -40 -8 -36 -11 -38 -48 -38 -39 0
-39 0 -39 -39 0 -40 0 -40 -42 -43 -36 -2 -44 -7 -46 -25 -2 -13 -10 -23 -18
-23 -23 0 -44 -26 -44 -54 0 -23 -4 -26 -36 -26 -37 0 -55 -12 -67 -43 -4 -11
-16 -21 -26 -24 -12 -3 -21 -15 -23 -32 -2 -20 -9 -27 -30 -29 -16 -2 -28 -8
-28 -13 0 -5 -9 -9 -20 -9 -15 0 -20 -7 -20 -25 0 -20 -5 -25 -25 -25 -20 0
-25 -5 -25 -24 0 -27 -37 -56 -71 -56 -17 0 -20 -5 -17 -24 7 -34 0 -41 -52
-52 -36 -7 -46 -14 -48 -32 -3 -16 -10 -22 -28 -22 -19 0 -24 -5 -24 -24 0
-31 -25 -56 -56 -56 -20 0 -24 -5 -24 -31 l0 -32 72 8 c40 3 80 11 90 16 9 5
34 9 55 9 22 0 45 6 52 13 11 9 14 10 18 0 5 -14 85 -18 97 -5 7 6 85 19 236
38 25 4 47 10 50 14 3 5 70 10 149 13 83 3 148 10 154 16 6 6 30 11 53 11 24
0 45 4 48 9 3 5 43 12 88 16 46 4 88 11 93 15 6 4 47 11 93 15 45 4 85 11 88
16 3 5 25 9 49 9 24 0 47 5 50 10 3 5 22 10 41 10 24 0 34 5 34 15 0 11 11 15
38 15 21 0 42 3 46 8 7 6 73 17 234 38 24 4 46 12 49 20 3 8 18 14 33 14 16 0
32 5 35 10 3 6 24 10 46 10 21 0 39 5 39 10 0 6 20 10 45 10 31 0 47 5 51 15
4 8 12 15 20 15 8 0 14 7 14 15 0 11 12 15 44 15 25 0 47 4 50 9 3 5 44 12 90
16 63 5 89 11 101 25 11 12 38 21 71 26 44 5 54 10 54 25 0 15 7 19 38 19 74
0 111 11 114 34 2 15 11 22 33 24 17 2 34 8 39 13 6 5 25 9 42 9 47 0 85 17
91 40 4 16 14 20 44 20 22 0 39 5 39 10 0 6 16 10 35 10 24 0 35 5 35 14 0 9
12 16 33 18 24 2 33 8 35 26 2 16 10 22 27 22 13 0 27 5 30 10 3 6 24 10 46
10 28 0 39 4 39 15 0 10 10 15 30 15 20 0 33 7 41 23 18 33 40 46 77 47 22 0
32 5 32 15 0 9 9 15 25 15 20 0 25 5 25 24 0 21 6 24 52 29 38 5 58 14 75 32
13 14 32 25 42 25 10 0 26 9 36 20 10 11 24 20 32 20 7 0 13 7 13 15 0 8 7 15
15 15 8 0 15 4 15 10 0 5 11 12 25 16 14 3 25 10 25 14 0 4 16 17 35 29 22 13
35 28 35 41 0 14 7 20 23 20 30 1 54 21 62 53 6 21 13 27 35 27 27 0 60 26 60
49 0 6 11 16 25 21 15 6 25 17 25 30 0 15 7 20 28 20 22 0 31 8 46 40 12 25
26 40 38 40 10 0 18 6 18 14 0 7 7 19 15 26 8 7 15 23 15 36 0 18 5 24 23 24
16 0 33 13 53 41 16 22 34 46 39 53 13 16 34 48 42 65 3 8 15 24 25 35 10 12
25 29 33 39 8 9 15 26 15 37 0 11 7 20 15 20 10 0 15 10 15 33 1 34 19 67 39
67 6 0 11 17 11 40 0 22 5 40 11 40 21 0 39 29 39 64 0 22 5 36 13 36 21 0 42
60 28 81 -10 17 -8 19 13 19 25 0 23 -6 47 135 6 33 15 62 20 66 6 3 11 28 13
56 1 27 6 55 10 62 5 7 11 60 14 117 2 57 9 104 13 104 5 0 9 11 9 25 0 14 -4
25 -10 25 -5 0 -10 11 -10 25 0 14 5 25 10 25 6 0 10 18 10 40 0 22 -4 40 -10
40 -5 0 -10 11 -10 25 0 14 5 25 10 25 6 0 10 16 10 35 0 19 -4 35 -9 35 -5 0
-12 40 -15 90 -4 49 -12 92 -17 95 -5 4 -9 26 -9 50 0 24 -4 46 -9 49 -5 4
-12 44 -16 91 -4 47 -11 88 -16 91 -5 3 -9 27 -9 54 0 27 -5 52 -10 55 -17 10
-40 75 -40 110 0 18 -7 38 -15 45 -8 7 -15 21 -15 31 0 10 -4 21 -10 24 -5 3
-10 19 -10 36 0 19 -5 29 -15 29 -11 0 -15 11 -15 40 0 29 -4 40 -15 40 -10 0
-15 10 -15 33 0 18 -5 38 -12 45 -13 13 -60 16 -71 5z"/>
<path d="M12236 7593 c-45 -247 -112 -1007 -151 -1728 -43 -770 -34 -1615 21
-2014 8 -57 13 -106 11 -107 -3 -4 -282 -86 -366 -108 -25 -7 -46 -16 -48 -22
-2 -5 31 -52 74 -104 103 -127 246 -304 248 -307 0 -1 53 12 116 31 68 19 117
29 120 23 6 -9 494 55 506 66 2 3 -3 20 -12 37 -9 18 -13 36 -8 40 9 8 284 69
448 99 109 20 362 57 589 86 66 8 122 17 125 20 3 3 -2 18 -11 33 -8 15 -58
104 -111 197 -53 94 -102 177 -109 186 -12 15 -31 15 -238 -11 -239 -30 -533
-77 -690 -109 -52 -11 -96 -19 -97 -18 -17 18 -32 1170 -18 1421 3 50 10 195
15 321 27 615 91 1412 135 1695 8 52 16 103 18 114 2 16 -42 37 -272 132 -151
63 -275 114 -276 114 -2 0 -10 -39 -19 -87z"/>
<path d="M22435 7603 c-94 -8 -308 -46 -420 -74 -140 -35 -395 -119 -395 -130
0 -4 46 -60 102 -125 l102 -117 -17 -141 c-44 -364 -102 -1027 -132 -1506 -8
-135 -18 -286 -21 -337 l-6 -91 -104 -7 c-72 -5 -104 -11 -100 -19 2 -6 45
-96 94 -201 l89 -190 6 -400 c7 -473 26 -688 77 -893 21 -82 75 -202 91 -202
9 0 462 111 467 115 1 1 -5 15 -13 32 -39 79 -55 302 -55 785 0 224 4 379 9
383 6 3 49 -13 98 -36 158 -74 515 -230 638 -279 441 -177 861 -318 882 -296
3 3 -16 99 -43 213 l-49 208 -55 19 c-224 77 -1185 462 -1173 469 4 3 57 24
118 47 423 166 805 451 1062 795 87 116 145 213 181 299 139 339 172 632 102
907 -35 136 -83 229 -186 360 -169 213 -478 360 -863 408 -77 10 -391 13 -486
4z m673 -468 c193 -50 295 -149 331 -323 26 -124 9 -310 -41 -462 -115 -349
-447 -734 -826 -957 -73 -43 -320 -163 -335 -163 -4 0 31 506 53 775 21 249
81 832 101 975 19 138 9 125 102 143 243 48 464 52 615 12z"/>
<path d="M17917 7523 c-3 -16 -46 -289 -97 -608 -50 -319 -93 -586 -95 -593
-3 -8 -25 3 -65 32 -120 89 -225 126 -355 126 -179 0 -318 -69 -477 -239 -99
-105 -162 -200 -249 -376 -140 -284 -224 -568 -275 -935 -13 -91 -18 -191 -18
-370 0 -211 3 -261 22 -362 79 -416 252 -655 523 -722 245 -60 470 63 674 369
40 61 90 144 111 185 l39 75 6 -120 c16 -278 84 -610 161 -778 29 -62 34 -67
57 -63 14 3 116 22 226 42 110 20 201 38 203 39 2 2 -11 43 -28 91 -71 202
-95 485 -87 1009 9 564 42 962 188 2279 44 400 77 732 72 736 -8 7 -515 210
-525 210 -3 0 -8 -12 -11 -27z m-417 -1588 c43 -89 61 -167 67 -290 5 -100 2
-121 -26 -234 -106 -416 -299 -887 -496 -1211 -54 -89 -157 -234 -174 -245 -8
-4 -19 39 -42 165 -17 91 -14 427 5 586 58 487 277 1040 496 1251 82 79 100
88 123 60 10 -12 31 -49 47 -82z"/>
<path d="M15671 6778 c-22 -131 -61 -578 -61 -701 l0 -42 258 -53 c141 -29
265 -52 275 -52 14 0 17 9 17 46 0 67 29 389 49 549 10 77 17 141 16 143 -2 3
-533 172 -539 172 -2 0 -9 -28 -15 -62z"/>
<path d="M24167 6718 c-26 -193 -64 -678 -54 -684 6 -3 524 -104 533 -104 8 0
14 34 19 93 13 180 35 414 51 526 8 62 13 116 10 118 -5 5 -526 173 -537 173
-4 0 -14 -55 -22 -122z"/>
<path d="M30078 6474 c-176 -42 -350 -190 -506 -429 -80 -121 -179 -318 -243
-480 l-47 -120 -11 45 c-18 72 -77 251 -101 303 -21 47 -21 47 -68 47 -48 0
-265 -15 -373 -25 l-57 -6 -11 63 c-18 105 -69 193 -163 284 -141 136 -241
179 -408 178 -87 0 -118 -5 -178 -26 -245 -87 -505 -363 -682 -722 -92 -188
-162 -421 -207 -698 -26 -158 -24 -520 5 -648 50 -229 128 -378 271 -520 119
-118 261 -182 476 -215 197 -31 399 -7 548 64 175 84 366 251 511 446 12 15
16 16 16 5 12 -325 34 -425 109 -500 38 -38 59 -50 114 -65 115 -31 261 -6
307 53 31 39 55 132 110 425 127 675 235 1112 366 1475 60 168 170 388 241
486 81 111 132 151 218 173 39 10 71 18 73 19 2 1 -20 92 -49 203 l-53 201
-76 -1 c-41 0 -101 -7 -132 -15z m-1958 -688 c-29 -207 -174 -531 -340 -761
-67 -92 -176 -212 -185 -203 -24 24 152 553 246 741 77 152 181 286 249 319
44 22 46 16 30 -96z m606 -206 c30 -102 59 -261 78 -430 l15 -125 -32 -70
c-81 -177 -213 -393 -354 -577 -140 -182 -349 -362 -508 -434 -73 -34 -174
-43 -226 -21 -78 32 -131 155 -148 348 -10 103 -7 311 5 348 2 7 48 -43 104
-117 l100 -130 47 14 c174 53 401 260 578 529 156 237 283 584 286 784 l0 46
15 -40 c8 -22 26 -78 40 -125z"/>
<path d="M31525 6310 c-15 -93 -31 -170 -35 -170 -4 0 -42 20 -85 45 -104 59
-234 90 -344 82 -467 -32 -803 -617 -915 -1597 -61 -528 48 -910 305 -1072
174 -110 388 -129 549 -48 161 81 315 250 430 473 19 37 38 67 43 67 4 0 7
-27 7 -60 0 -126 42 -339 103 -522 31 -95 33 -98 62 -98 43 1 464 55 469 61 3
3 -6 36 -20 74 -90 248 -105 873 -44 1825 41 632 51 810 48 856 l-3 47 -265
103 c-146 57 -268 104 -271 104 -3 0 -18 -76 -34 -170z m-247 -510 c105 -101
156 -312 132 -545 -32 -316 -161 -681 -331 -935 -104 -156 -263 -304 -350
-325 -24 -6 -27 -3 -33 27 -14 73 -18 357 -7 473 47 494 214 989 415 1234 40
48 111 111 126 111 4 0 26 -18 48 -40z"/>
<path d="M18696 6348 c-29 -90 -39 -128 -60 -218 -68 -286 -99 -563 -99 -885
0 -262 14 -386 59 -542 95 -327 300 -536 578 -589 85 -16 110 -16 199 -6 56 6
131 21 166 33 68 23 201 107 226 142 20 29 19 24 -14 -74 -91 -267 -194 -492
-292 -639 -83 -125 -204 -246 -286 -285 -35 -17 -62 -34 -60 -38 1 -5 68 -94
147 -198 l145 -190 37 6 c97 14 236 101 341 215 71 76 181 234 239 340 228
422 387 1082 453 1882 19 238 30 639 21 799 l-8 126 -251 42 c-139 23 -259 45
-268 47 -15 4 -18 -9 -23 -98 -40 -633 -121 -1050 -260 -1343 -98 -208 -200
-316 -317 -334 -60 -10 -53 -14 -115 77 -120 178 -170 547 -129 963 14 148 63
412 90 490 8 23 15 49 15 58 0 12 -64 42 -233 110 -127 52 -247 101 -265 108
-26 11 -33 11 -36 1z"/>
<path d="M14651 6320 c-246 -66 -485 -293 -680 -644 -107 -194 -174 -384 -226
-641 -40 -199 -49 -292 -49 -480 0 -146 4 -202 23 -294 39 -200 100 -336 211
-474 159 -199 385 -290 715 -292 126 0 163 4 233 23 217 59 449 232 625 465
l36 48 5 -33 c3 -18 13 -80 21 -138 24 -157 61 -296 104 -385 64 -133 32 -125
297 -70 126 26 230 48 232 50 1 1 -8 24 -22 51 -112 224 -140 912 -70 1764 8
102 21 234 29 295 8 60 11 112 7 116 -9 9 -510 169 -528 169 -8 0 -14 -3 -14
-7 0 -5 -9 -87 -20 -183 -10 -96 -26 -272 -35 -390 l-15 -215 -79 -160 c-80
-163 -228 -397 -342 -540 -162 -206 -390 -386 -543 -430 -75 -22 -165 -17
-204 12 -35 26 -77 111 -98 198 -19 80 -30 382 -17 454 l8 44 98 -131 98 -131
42 13 c279 85 619 484 782 918 90 241 113 488 60 648 -35 106 -125 212 -256
301 -120 81 -285 108 -428 69z m169 -469 c0 -184 -149 -545 -336 -812 -57 -81
-193 -234 -201 -225 -6 6 45 200 88 333 110 337 246 599 366 702 63 53 83 54
83 2z"/>
<path d="M26406 6222 c-2 -4 -6 -77 -10 -162 -23 -524 -70 -1001 -132 -1350
-94 -519 -276 -855 -455 -838 -29 3 -37 10 -56 48 -42 86 -153 416 -193 575
-90 362 -159 884 -176 1343 l-7 182 -36 10 c-293 77 -502 127 -505 122 -6 -11
12 -480 24 -617 22 -257 83 -655 135 -888 133 -592 373 -1000 668 -1138 95
-44 180 -62 292 -63 208 -1 352 78 500 272 144 191 250 452 330 812 59 266
105 581 130 885 9 111 36 637 33 640 -2 2 -104 35 -228 74 -124 40 -244 78
-267 86 -24 7 -44 11 -47 7z"/>
<path d="M24106 5833 c-8 -30 -35 -279 -51 -478 -70 -896 -25 -1592 124 -1895
57 -116 27 -110 288 -56 125 26 229 49 231 50 1 2 -8 27 -21 57 -48 109 -77
282 -98 574 -21 297 3 977 47 1365 10 80 18 165 18 189 l1 45 -255 83 c-140
45 -260 83 -267 83 -6 0 -14 -8 -17 -17z"/>
<path d="M11000 4776 c-5 -14 -17 -26 -26 -26 -18 0 -53 -38 -54 -57 0 -7 -11
-13 -25 -13 -18 0 -26 -7 -31 -25 -4 -18 -13 -25 -30 -25 -12 0 -29 -8 -36
-18 -7 -10 -21 -21 -31 -25 -11 -4 -21 -16 -24 -27 -3 -11 -14 -20 -24 -20
-10 0 -24 -9 -31 -20 -7 -11 -22 -20 -33 -20 -26 0 -39 -10 -54 -37 -6 -13
-21 -23 -31 -23 -11 0 -20 -4 -20 -10 0 -5 -9 -10 -20 -10 -11 0 -20 -7 -20
-15 0 -8 -9 -15 -20 -15 -11 0 -20 -4 -20 -10 0 -5 -9 -10 -20 -10 -11 0 -20
-7 -20 -15 0 -8 -7 -15 -15 -15 -8 0 -15 -4 -15 -10 0 -5 -11 -10 -25 -10 -16
0 -25 -6 -25 -15 0 -9 -9 -15 -23 -15 -31 0 -77 -22 -77 -37 0 -8 -13 -13 -30
-13 -16 0 -30 -4 -30 -10 0 -5 -11 -10 -24 -10 -14 0 -31 -6 -38 -12 -21 -21
-75 -48 -92 -48 -9 0 -16 -4 -16 -10 0 -5 -13 -10 -30 -10 -20 0 -30 -5 -30
-15 0 -10 -11 -15 -35 -15 -19 0 -35 -4 -35 -9 0 -5 -18 -12 -40 -16 -22 -4
-40 -11 -40 -16 0 -5 -11 -9 -25 -9 -16 0 -25 -6 -25 -15 0 -11 -11 -15 -40
-15 -22 0 -40 -3 -40 -8 0 -8 -75 -30 -133 -39 -21 -3 -41 -11 -44 -19 -3 -9
-21 -14 -50 -14 -36 0 -46 -4 -50 -19 -4 -14 -17 -20 -56 -24 -28 -2 -53 -10
-55 -16 -2 -6 -19 -11 -38 -11 -19 0 -34 -4 -34 -9 0 -5 -34 -12 -75 -16 -41
-4 -75 -10 -75 -15 0 -4 -28 -11 -62 -15 -58 -6 -85 -13 -130 -36 -10 -5 -39
-9 -65 -9 -27 0 -57 -7 -67 -15 -14 -11 -46 -15 -108 -15 -72 0 -88 -3 -88
-15 0 -12 -14 -15 -69 -15 -39 0 -73 -4 -76 -10 -3 -5 -35 -10 -71 -10 -50 0
-64 -3 -64 -15 0 -12 -17 -15 -94 -15 -52 0 -97 -4 -100 -9 -3 -5 -91 -12
-196 -16 -105 -4 -193 -11 -196 -16 -3 -5 -47 -9 -99 -9 -52 0 -96 -4 -99 -9
-3 -5 -91 -12 -196 -16 -105 -4 -193 -11 -196 -16 -7 -12 -191 -11 -199 1 -3
6 -17 10 -30 10 -13 0 -27 -4 -30 -10 -3 -6 -50 -10 -106 -10 -59 0 -99 -4
-99 -10 0 -5 -13 -10 -30 -10 -16 0 -30 5 -30 10 0 6 -38 10 -93 10 -83 0 -96
-3 -113 -21 -19 -21 -18 -21 3 -38 11 -10 23 -26 25 -37 2 -10 13 -20 25 -22
12 -2 25 -12 28 -23 4 -11 18 -24 31 -29 13 -5 24 -18 24 -28 0 -10 11 -25 25
-32 14 -7 25 -19 25 -25 0 -7 16 -20 35 -31 19 -10 35 -22 35 -26 0 -5 6 -8
13 -8 8 0 20 -12 27 -26 8 -14 27 -33 42 -42 15 -9 28 -19 28 -23 0 -4 11 -10
25 -13 16 -4 25 -13 25 -26 0 -11 9 -22 23 -26 12 -4 28 -15 35 -25 7 -11 18
-19 23 -19 5 0 30 -20 56 -45 25 -25 50 -45 57 -45 6 0 17 -9 24 -20 7 -11 21
-20 33 -20 11 0 38 -18 59 -40 21 -22 47 -40 57 -40 10 0 30 -11 45 -25 15
-14 34 -25 43 -25 9 0 18 -7 21 -15 4 -8 12 -15 19 -15 7 0 15 -7 19 -15 3 -8
16 -15 28 -15 13 0 30 -9 38 -20 8 -11 23 -20 34 -20 10 0 29 -11 42 -25 14
-15 34 -25 51 -25 16 0 36 -9 46 -20 9 -11 28 -20 42 -20 14 0 25 -3 25 -8 0
-10 52 -32 94 -39 20 -3 36 -8 36 -12 0 -11 53 -29 103 -36 26 -4 47 -11 47
-16 0 -5 11 -9 25 -9 14 0 25 -4 25 -9 0 -5 23 -11 50 -15 28 -4 50 -11 50
-15 0 -5 43 -12 95 -16 52 -4 95 -11 95 -16 0 -5 27 -9 60 -9 33 0 60 -4 60
-10 0 -13 57 -13 65 0 8 13 152 13 160 0 14 -23 114 -6 135 22 3 4 61 10 129
14 89 5 124 11 128 21 3 8 21 13 48 13 29 0 47 6 60 20 10 11 25 20 34 20 36
0 91 22 91 35 0 9 10 15 24 15 13 0 29 7 36 15 7 8 25 15 41 15 16 0 29 5 29
10 0 6 11 10 25 10 14 0 28 6 31 14 3 8 19 18 35 21 16 4 35 15 42 26 8 10 29
22 47 25 19 4 35 14 37 25 3 10 19 20 39 24 19 3 38 14 42 23 7 20 42 51 57
52 6 0 9 -17 7 -41 l-4 -40 33 3 c29 3 34 7 37 31 2 18 -3 33 -13 41 -19 14
-13 56 8 56 17 1 52 31 66 57 6 12 21 23 33 25 12 2 28 14 35 28 6 13 21 28
32 32 12 4 21 13 21 20 0 7 10 18 22 23 13 6 32 24 43 42 11 18 27 32 35 33
14 0 79 68 80 82 0 4 15 22 33 40 44 45 97 114 97 127 0 6 5 11 11 11 16 0 89
88 89 108 0 5 11 14 25 20 14 7 25 20 25 31 0 10 7 24 15 31 8 7 15 18 15 24
0 6 9 17 20 24 11 7 20 21 20 32 0 10 18 38 40 60 22 22 40 49 40 60 0 10 7
25 15 34 8 8 15 19 15 25 0 6 5 11 11 11 17 0 39 27 39 50 0 11 7 23 15 26 8
4 15 15 15 26 0 10 11 31 25 46 14 15 25 35 25 44 0 10 11 25 25 34 14 9 25
26 25 39 0 12 7 28 15 35 8 7 15 23 15 36 0 14 6 24 14 24 15 0 26 21 26 50 0
10 7 20 15 24 8 3 15 17 15 31 0 14 6 25 13 25 18 0 36 33 43 79 4 25 12 41
24 44 11 3 19 19 24 48 4 25 15 48 26 56 11 8 20 22 20 32 0 10 7 24 15 31 8
7 15 29 15 49 0 28 5 38 23 46 17 8 22 18 22 45 0 32 -3 35 -33 38 -27 3 -34
-1 -42 -22z"/>
<path d="M6083 2949 c3 -34 10 -65 16 -68 5 -4 13 -26 17 -49 4 -23 11 -45 15
-48 5 -3 9 -14 9 -24 0 -10 11 -31 25 -46 14 -15 25 -33 25 -40 0 -8 5 -14 10
-14 6 0 10 -13 10 -30 0 -20 5 -30 15 -30 8 0 15 -9 15 -20 0 -11 5 -20 10
-20 6 0 10 -13 10 -30 0 -20 5 -30 15 -30 8 0 15 -6 15 -12 0 -33 22 -88 35
-88 9 0 15 -10 15 -24 0 -13 6 -29 14 -36 8 -6 16 -21 18 -33 2 -12 13 -26 26
-32 15 -7 22 -18 22 -38 0 -15 7 -30 15 -33 8 -4 15 -17 15 -30 0 -14 7 -27
15 -30 8 -4 15 -14 15 -23 0 -10 9 -27 20 -39 11 -12 20 -26 20 -32 0 -5 7
-10 15 -10 8 0 15 -8 15 -19 0 -10 16 -29 35 -42 28 -19 35 -31 35 -56 0 -23
5 -33 15 -33 8 0 15 -6 15 -14 0 -8 7 -16 15 -20 8 -3 15 -11 15 -18 1 -19 36
-58 53 -58 8 0 18 -11 21 -25 4 -14 11 -25 16 -25 6 0 10 -7 10 -15 0 -8 7
-15 15 -15 8 0 15 -9 15 -20 0 -13 9 -22 25 -26 14 -3 25 -13 25 -22 0 -8 16
-30 35 -49 19 -19 35 -38 35 -43 0 -5 11 -12 24 -16 13 -3 28 -16 35 -30 6
-13 16 -24 22 -24 6 0 20 -11 31 -25 11 -14 24 -25 29 -25 14 0 39 -26 39 -39
0 -6 7 -11 15 -11 8 0 15 -4 15 -10 0 -5 16 -12 35 -16 25 -4 35 -11 35 -25 0
-13 13 -25 39 -36 22 -10 42 -24 44 -33 4 -16 237 -140 262 -140 8 0 15 -4 17
-8 5 -14 153 -81 174 -80 10 1 36 -7 58 -17 31 -15 42 -16 57 -7 12 8 19 8 19
2 0 -5 11 -10 24 -10 13 0 26 -5 28 -11 2 -6 41 -13 88 -16 47 -3 88 -11 92
-16 4 -7 12 -6 23 3 14 12 18 12 25 0 7 -11 12 -11 22 -2 11 9 17 9 26 0 8 -8
15 -8 27 2 10 8 15 9 15 1 0 -13 66 -15 74 -2 3 4 25 7 48 6 92 -5 278 26 278
47 0 13 28 10 32 -4 3 -9 14 -7 40 5 20 9 43 17 51 17 9 0 19 5 22 10 3 6 17
10 30 10 13 0 27 5 30 10 3 6 16 10 28 10 12 0 35 7 51 15 15 8 37 15 47 15
11 0 19 4 19 9 0 5 20 12 45 15 24 4 47 11 50 17 4 5 13 9 21 9 9 0 30 11 47
24 18 13 51 29 75 36 24 6 51 20 60 31 9 10 27 19 39 19 13 0 28 9 35 20 8 12
24 20 40 20 18 0 28 5 28 15 0 9 9 15 25 15 15 0 31 9 41 25 9 14 26 25 38 25
13 0 35 13 49 30 15 17 36 30 47 30 10 0 30 11 44 25 14 14 31 25 39 25 15 0
57 44 57 60 0 6 14 10 30 10 20 0 39 9 53 23 12 13 32 29 45 36 12 6 22 18 22
26 0 8 6 15 13 15 7 0 27 14 45 30 18 17 37 30 41 30 4 0 22 16 41 35 19 19
40 35 46 35 6 0 32 22 57 49 26 27 55 52 67 56 11 3 20 11 20 16 0 12 51 58
65 59 6 0 15 10 20 22 6 12 25 29 42 37 18 9 33 22 33 29 0 7 11 17 24 23 13
6 27 20 29 30 3 11 12 19 21 19 9 0 16 5 16 10 0 6 12 23 28 38 42 42 58 78
42 97 -14 17 -50 21 -50 5 0 -5 -7 -10 -15 -10 -8 0 -15 -4 -15 -9 0 -5 -15
-13 -32 -16 -18 -4 -35 -10 -38 -14 -3 -3 -27 -12 -55 -19 -27 -7 -63 -20 -79
-28 -16 -8 -36 -14 -45 -14 -9 0 -29 -7 -45 -15 -15 -8 -38 -15 -50 -15 -12 0
-27 -5 -32 -10 -6 -6 -37 -13 -70 -15 -32 -2 -60 -9 -62 -15 -2 -5 -23 -10
-47 -10 -24 0 -47 -5 -50 -10 -5 -8 -11 -7 -21 1 -10 8 -18 8 -26 1 -7 -5 -47
-13 -88 -17 -41 -4 -82 -11 -91 -16 -10 -5 -20 -4 -27 3 -8 8 -15 8 -26 -1
-11 -9 -15 -9 -18 1 -4 10 -10 10 -31 -1 -23 -12 -31 -12 -53 -1 -20 11 -29
12 -44 2 -23 -14 -146 -16 -155 -2 -7 11 -68 8 -77 -4 -4 -6 -14 -4 -24 5 -14
11 -18 11 -22 1 -3 -9 -8 -10 -16 -3 -6 5 -77 13 -156 16 -80 3 -149 10 -154
16 -6 5 -35 9 -66 9 -31 0 -60 4 -66 9 -5 6 -40 12 -78 15 -38 3 -75 11 -82
17 -8 6 -23 9 -33 6 -11 -3 -29 1 -39 9 -11 8 -31 14 -44 13 -40 0 -118 13
-124 22 -3 5 -20 9 -37 9 -18 1 -43 7 -57 15 -14 8 -40 14 -58 15 -18 0 -43 7
-55 14 -12 8 -37 14 -55 14 -18 -1 -38 4 -44 10 -7 7 -24 12 -39 12 -15 0 -40
7 -55 15 -16 8 -46 15 -66 15 -21 0 -38 3 -38 8 0 11 -76 42 -103 42 -13 0
-46 11 -73 25 -27 14 -62 25 -79 25 -16 0 -39 7 -49 15 -11 8 -28 15 -38 15
-10 0 -18 5 -18 10 0 6 -15 10 -33 10 -19 0 -66 17 -111 40 -42 22 -89 40
-104 40 -15 0 -63 18 -107 40 -44 22 -91 40 -105 40 -29 0 -80 21 -80 33 0 4
-6 7 -12 7 -7 0 -62 25 -122 55 -59 30 -120 55 -135 55 -14 0 -120 47 -236
105 -115 58 -215 105 -222 105 -7 0 -13 3 -13 8 0 9 -75 42 -96 42 -14 0 -16
-9 -11 -61z"/>
</g>
</svg>
